<mxfile host="Electron" agent="Mozilla/5.0 (Windows NT 10.0; Win64; x64) AppleWebKit/537.36 (KHTML, like Gecko) draw.io/26.2.15 Chrome/134.0.6998.205 Electron/35.2.1 Safari/537.36" version="26.2.15">
  <diagram name="Page-1" id="ANjZg_1xM6aMmp8ieINO">
    <mxGraphModel dx="933" dy="559" grid="1" gridSize="10" guides="1" tooltips="1" connect="1" arrows="1" fold="1" page="1" pageScale="1" pageWidth="850" pageHeight="1100" math="0" shadow="0">
      <root>
        <mxCell id="0" />
        <mxCell id="1" parent="0" />
        <mxCell id="N_XypU4hV8m1PXXOpz1D-1" value="" style="rounded=0;whiteSpace=wrap;html=1;fillColor=#808080;" parent="1" vertex="1">
          <mxGeometry x="100" y="50" width="540" height="490" as="geometry" />
        </mxCell>
        <mxCell id="N_XypU4hV8m1PXXOpz1D-2" value="Patient register page" style="text;html=1;align=center;verticalAlign=middle;whiteSpace=wrap;rounded=0;" parent="1" vertex="1">
          <mxGeometry x="100" y="540" width="570" height="30" as="geometry" />
        </mxCell>
        <mxCell id="N_XypU4hV8m1PXXOpz1D-3" value="&lt;font color=&quot;rgba(0, 0, 0, 0)&quot;&gt;Welcome to E-MED&lt;/font&gt;" style="rounded=1;whiteSpace=wrap;html=1;fillColor=#E6E6E6;fontColor=#000000;" parent="1" vertex="1">
          <mxGeometry x="120" y="70" width="500" height="70" as="geometry" />
        </mxCell>
        <mxCell id="N_XypU4hV8m1PXXOpz1D-7" value="" style="rounded=1;whiteSpace=wrap;html=1;strokeColor=#33FF33;fillColor=#33FF33;" parent="1" vertex="1">
          <mxGeometry x="172.5" y="470" width="95" height="30" as="geometry" />
        </mxCell>
        <mxCell id="N_XypU4hV8m1PXXOpz1D-8" value="register" style="text;html=1;align=center;verticalAlign=middle;whiteSpace=wrap;rounded=0;" parent="1" vertex="1">
          <mxGeometry x="190" y="470" width="60" height="30" as="geometry" />
        </mxCell>
        <mxCell id="N_XypU4hV8m1PXXOpz1D-9" value="already have account ? click for login" style="text;html=1;align=center;verticalAlign=middle;whiteSpace=wrap;rounded=0;" parent="1" vertex="1">
          <mxGeometry x="260" y="470" width="390" height="30" as="geometry" />
        </mxCell>
        <mxCell id="N_XypU4hV8m1PXXOpz1D-10" value="" style="rounded=1;whiteSpace=wrap;html=1;" parent="1" vertex="1">
          <mxGeometry x="170" y="180" width="390" height="30" as="geometry" />
        </mxCell>
        <mxCell id="N_XypU4hV8m1PXXOpz1D-11" value="" style="rounded=1;whiteSpace=wrap;html=1;" parent="1" vertex="1">
          <mxGeometry x="170" y="240" width="390" height="30" as="geometry" />
        </mxCell>
        <mxCell id="N_XypU4hV8m1PXXOpz1D-12" value="" style="rounded=1;whiteSpace=wrap;html=1;" parent="1" vertex="1">
          <mxGeometry x="170" y="300" width="390" height="30" as="geometry" />
        </mxCell>
        <mxCell id="N_XypU4hV8m1PXXOpz1D-13" value="" style="rounded=1;whiteSpace=wrap;html=1;" parent="1" vertex="1">
          <mxGeometry x="170" y="360" width="390" height="30" as="geometry" />
        </mxCell>
        <mxCell id="N_XypU4hV8m1PXXOpz1D-14" value="" style="rounded=1;whiteSpace=wrap;html=1;" parent="1" vertex="1">
          <mxGeometry x="170" y="420" width="390" height="30" as="geometry" />
        </mxCell>
        <mxCell id="N_XypU4hV8m1PXXOpz1D-15" value="Name" style="text;html=1;align=center;verticalAlign=middle;whiteSpace=wrap;rounded=0;" parent="1" vertex="1">
          <mxGeometry x="170" y="150" width="60" height="30" as="geometry" />
        </mxCell>
        <mxCell id="N_XypU4hV8m1PXXOpz1D-16" value="email" style="text;html=1;align=center;verticalAlign=middle;whiteSpace=wrap;rounded=0;" parent="1" vertex="1">
          <mxGeometry x="165" y="210" width="60" height="30" as="geometry" />
        </mxCell>
        <mxCell id="N_XypU4hV8m1PXXOpz1D-17" value="mobile" style="text;html=1;align=center;verticalAlign=middle;whiteSpace=wrap;rounded=0;" parent="1" vertex="1">
          <mxGeometry x="170" y="270" width="60" height="30" as="geometry" />
        </mxCell>
        <mxCell id="N_XypU4hV8m1PXXOpz1D-18" value="Password" style="text;html=1;align=center;verticalAlign=middle;whiteSpace=wrap;rounded=0;" parent="1" vertex="1">
          <mxGeometry x="170" y="330" width="60" height="30" as="geometry" />
        </mxCell>
        <mxCell id="N_XypU4hV8m1PXXOpz1D-19" value="Confirm_Password" style="text;html=1;align=center;verticalAlign=middle;whiteSpace=wrap;rounded=0;" parent="1" vertex="1">
          <mxGeometry x="190" y="390" width="60" height="30" as="geometry" />
        </mxCell>
        <mxCell id="N_XypU4hV8m1PXXOpz1D-21" value="welcome to E-MED" style="text;html=1;align=center;verticalAlign=middle;whiteSpace=wrap;rounded=0;fontColor=#FF0080;" parent="1" vertex="1">
          <mxGeometry x="210" y="95" width="290" height="20" as="geometry" />
        </mxCell>
        <mxCell id="N_XypU4hV8m1PXXOpz1D-22" value="" style="ellipse;whiteSpace=wrap;html=1;aspect=fixed;fillColor=#66FF66;" parent="1" vertex="1">
          <mxGeometry x="145" y="75" width="60" height="60" as="geometry" />
        </mxCell>
        <mxCell id="N_XypU4hV8m1PXXOpz1D-23" value="img" style="text;html=1;align=center;verticalAlign=middle;whiteSpace=wrap;rounded=0;" parent="1" vertex="1">
          <mxGeometry x="140" y="90" width="60" height="30" as="geometry" />
        </mxCell>
      </root>
    </mxGraphModel>
  </diagram>
</mxfile>
